<svg width="521" height="403" viewBox="0 0 521 403" fill="none" xmlns="http://www.w3.org/2000/svg">
<path fill-rule="evenodd" clip-rule="evenodd" d="M317.612 159.689C317.612 247.883 246.512 319.379 158.806 319.379C71.0998 319.379 0 247.883 0 159.689C0 71.4954 71.0998 0 158.806 0C246.512 0 317.612 71.4954 317.612 159.689ZM82.3438 145.495C82.3438 161.174 76.0238 173.884 68.2277 173.884C60.4316 173.884 54.1116 161.174 54.1116 145.495C54.1116 129.816 60.4316 117.106 68.2277 117.106C76.0238 117.106 82.3438 129.816 82.3438 145.495ZM141.161 173.884C148.957 173.884 155.277 161.174 155.277 145.495C155.277 129.816 148.957 117.106 141.161 117.106C133.365 117.106 127.045 129.816 127.045 145.495C127.045 161.174 133.365 173.884 141.161 173.884Z" fill="black"/>
<path d="M517.513 154.985C521.315 156.795 521.315 162.205 517.513 164.015L243.899 294.229C240.581 295.808 236.75 293.389 236.75 289.714L236.75 29.2858C236.75 25.6113 240.581 23.192 243.899 24.771L517.513 154.985Z" fill="black"/>
<line x1="12.5" y1="-12.5" x2="100.925" y2="-12.5" transform="matrix(-0.497921 0.867222 -0.86482 -0.502082 141.477 296)" stroke="black" stroke-width="25" stroke-linecap="round"/>
<line x1="12.5" y1="-12.5" x2="100.925" y2="-12.5" transform="matrix(-0.497921 -0.867222 0.86482 -0.502082 232.055 394.365)" stroke="black" stroke-width="25" stroke-linecap="round"/>
</svg>
