<svg width="759" height="745" viewBox="0 0 759 745" fill="none" xmlns="http://www.w3.org/2000/svg">
<path d="M294.741 7.44201C298.978 -2.01592 312.405 -2.01597 316.643 7.44196L609.619 661.343C613.176 669.282 607.368 678.25 598.668 678.25H12.7155C4.01607 678.25 -1.79258 669.282 1.76445 661.343L294.741 7.44201Z" fill="black"/>
<path d="M442.357 7.44201C446.595 -2.01592 460.022 -2.01597 464.259 7.44196L757.236 661.343C760.793 669.282 754.984 678.25 746.285 678.25H160.332C151.632 678.25 145.824 669.282 149.381 661.343L442.357 7.44201Z" fill="black"/>
<ellipse cx="306" cy="240" rx="20" ry="54" fill="white"/>
<rect x="405.292" y="257.672" width="98.7083" height="26.9205" rx="10" fill="white"/>
<rect x="402" y="265.797" width="98.7083" height="26.9205" rx="10" transform="rotate(-45 402 265.797)" fill="white"/>
<rect x="218" y="599" width="88" height="146" rx="20" fill="black"/>
<rect x="453" y="599" width="88" height="146" rx="20" fill="black"/>
</svg>
